<svg width="33" height="33" viewBox="0 0 33 33" fill="none" xmlns="http://www.w3.org/2000/svg">
<g clip-path="url(#clip0_7_28)">
<path d="M1.375 15.125H4.125V12.375C4.125 12.0103 4.26986 11.6606 4.52773 11.4027C4.78559 11.1449 5.13533 11 5.5 11C5.86467 11 6.21441 11.1449 6.47227 11.4027C6.73014 11.6606 6.875 12.0103 6.875 12.375V15.125H9.625C9.98967 15.125 10.3394 15.2699 10.5973 15.5277C10.8551 15.7856 11 16.1353 11 16.5C11 16.8647 10.8551 17.2144 10.5973 17.4723C10.3394 17.7301 9.98967 17.875 9.625 17.875H6.875V20.625C6.875 20.9897 6.73014 21.3394 6.47227 21.5973C6.21441 21.8551 5.86467 22 5.5 22C5.13533 22 4.78559 21.8551 4.52773 21.5973C4.26986 21.3394 4.125 20.9897 4.125 20.625V17.875H1.375C1.01033 17.875 0.660589 17.7301 0.402727 17.4723C0.144865 17.2144 0 16.8647 0 16.5C0 16.1353 0.144865 15.7856 0.402727 15.5277C0.660589 15.2699 1.01033 15.125 1.375 15.125Z" fill="black"/>
<path d="M20.625 16.5C18.9933 16.5 17.3982 16.0161 16.0415 15.1096C14.6848 14.2031 13.6274 12.9146 13.003 11.4071C12.3786 9.89965 12.2152 8.24085 12.5335 6.64051C12.8518 5.04016 13.6376 3.57015 14.7914 2.41637C15.9452 1.26259 17.4152 0.476849 19.0155 0.158521C20.6158 -0.159807 22.2746 0.0035708 23.7821 0.627994C25.2896 1.25242 26.5781 2.30984 27.4846 3.66655C28.3911 5.02325 28.875 6.6183 28.875 8.25C28.8728 10.4374 28.0029 12.5345 26.4562 14.0812C24.9095 15.6279 22.8124 16.4978 20.625 16.5ZM20.625 2.75C19.5372 2.75 18.4738 3.07257 17.5694 3.67692C16.6649 4.28127 15.9599 5.14025 15.5437 6.14524C15.1274 7.15024 15.0185 8.2561 15.2307 9.323C15.4429 10.3899 15.9667 11.3699 16.7359 12.1391C17.5051 12.9083 18.4851 13.4321 19.552 13.6443C20.6189 13.8565 21.7248 13.7476 22.7298 13.3313C23.7348 12.9151 24.5937 12.2101 25.1981 11.3056C25.8024 10.4012 26.125 9.3378 26.125 8.25C26.125 6.79131 25.5455 5.39236 24.5141 4.36091C23.4826 3.32946 22.0837 2.75 20.625 2.75Z" fill="black"/>
<path d="M20.625 19.25C23.9059 19.2536 27.0515 20.5586 29.3714 22.8786C31.6914 25.1985 32.9964 28.3441 33 31.625C33 31.9897 32.8551 32.3394 32.5973 32.5973C32.3394 32.8551 31.9897 33 31.625 33C31.2603 33 30.9106 32.8551 30.6527 32.5973C30.3949 32.3394 30.25 31.9897 30.25 31.625C30.25 29.0723 29.2359 26.6241 27.4309 24.8191C25.6259 23.0141 23.1777 22 20.625 22C18.0723 22 15.6241 23.0141 13.8191 24.8191C12.0141 26.6241 11 29.0723 11 31.625C11 31.9897 10.8551 32.3394 10.5973 32.5973C10.3394 32.8551 9.98967 33 9.625 33C9.26033 33 8.91059 32.8551 8.65273 32.5973C8.39487 32.3394 8.25 31.9897 8.25 31.625C8.25364 28.3441 9.5586 25.1985 11.8786 22.8786C14.1985 20.5586 17.3441 19.2536 20.625 19.25Z" fill="black"/>
</g>
<defs>
<clipPath id="clip0_7_28">
<rect width="33" height="33" fill="white" transform="matrix(-1 0 0 1 33 0)"/>
</clipPath>
</defs>
</svg>
