<svg width="33" height="33" viewBox="0 0 33 33" fill="none" xmlns="http://www.w3.org/2000/svg">
<g clip-path="url(#clip0_7_32)">
<path d="M31.4229 1.5785C30.4881 0.645145 29.2211 0.120913 27.9001 0.120913C26.5791 0.120913 25.3122 0.645145 24.3774 1.5785L2.01437 23.9415C1.37396 24.5783 0.866188 25.3358 0.520425 26.1701C0.174662 27.0044 -0.00222773 27.899 -9.91839e-06 28.8021V31.625C-9.91839e-06 31.9897 0.144856 32.3394 0.402718 32.5973C0.660581 32.8551 1.01032 33 1.37499 33H4.19787C5.10091 33.0026 5.9955 32.8259 6.82983 32.4804C7.66416 32.1349 8.42167 31.6273 9.05849 30.987L31.4229 8.62263C32.3558 7.68789 32.8798 6.4212 32.8798 5.10056C32.8798 3.77992 32.3558 2.51323 31.4229 1.5785ZM7.11424 29.0428C6.33874 29.8131 5.29094 30.2468 4.19787 30.25H2.74999V28.8021C2.7486 28.2602 2.8547 27.7235 3.06217 27.2229C3.26963 26.7223 3.57432 26.2678 3.95862 25.8858L20.9302 8.91412L24.0927 12.0766L7.11424 29.0428ZM29.4772 6.67837L26.0315 10.1255L22.869 6.96987L26.3161 3.52275C26.5238 3.31555 26.7702 3.15128 27.0413 3.03931C27.3125 2.92735 27.603 2.86989 27.8964 2.8702C28.1897 2.87052 28.4801 2.92862 28.751 3.04117C29.0219 3.15373 29.268 3.31853 29.4752 3.52619C29.6824 3.73384 29.8467 3.98027 29.9586 4.25141C30.0706 4.52255 30.128 4.81308 30.1277 5.10643C30.1274 5.39978 30.0693 5.69019 29.9568 5.96108C29.8442 6.23198 29.6794 6.47805 29.4717 6.68525L29.4772 6.67837Z" fill="black"/>
</g>
<defs>
<clipPath id="clip0_7_32">
<rect width="33" height="33" fill="white"/>
</clipPath>
</defs>
</svg>
